<svg xmlns="http://www.w3.org/2000/svg" viewBox="0 0 151.84 246.45"><title>switch</title><path d="M75.92,3a72.92,72.92,0,0,0-57,118.39C24.12,129.3,35,147.31,37.2,162.27c1.35,9.24-.45,21.19,1.86,26.72,1.22,2.91,4,6,10.24,8.1l57.76-3,0.65,0,0.8,0a12,12,0,0,0,4.25-5.15c2.32-5.53.52-17.48,1.86-26.72,2.18-15,13.09-33,18.29-40.89A72.92,72.92,0,0,0,75.92,3ZM128.8,118.09l-0.15.19-0.13.2c-6.16,9.36-16.83,27.4-19.11,43a94.46,94.46,0,0,0-.62,13.57c0,4.56,0,9.73-.88,11.87a6.1,6.1,0,0,1-1.31,1.93l-56.51,2.89a14.74,14.74,0,0,1-4.36-2.43,6.38,6.38,0,0,1-1.8-2.39C43,184.81,43,179.64,43,175.08a94.58,94.58,0,0,0-.62-13.57c-2.27-15.63-12.95-33.67-19.11-43l-0.13-.2L23,118.09A67.68,67.68,0,1,1,128.8,118.09Z" style="fill:#5c5d60;stroke:#5c5d60;stroke-miterlimit:10;stroke-width:6px"/><path d="M63.61,240.67a16.68,16.68,0,0,0,12.63,5.78h0a16.68,16.68,0,0,0,12.65-5.81l2.34-2.72h-30Z" style="fill:#5c5d60"/><path d="M54.88,234.69H97.59c4.6,0,8.33-4.48,8.33-10v0l-58.74,3.86C48.43,232.14,51.4,234.69,54.88,234.69Z" style="fill:#5c5d60"/><path d="M107.23,199.79l-62.54,3.94c-3.12.2-5.58,2.22-5.48,4.51s2.7,4,5.83,3.8l62.54-3.94c3.12-.2,5.58-2.22,5.48-4.51S110.35,199.6,107.23,199.79Z" style="fill:#5c5d60"/><path d="M104.82,212.07L46.69,216c-2.9.2-5.18,2.22-5.1,4.51s2.51,4,5.42,3.8l58.13-3.94c2.9-.2,5.18-2.22,5.1-4.51S107.73,211.87,104.82,212.07Z" style="fill:#5c5d60"/></svg>
